<svg xmlns="http://www.w3.org/2000/svg" width="20" height="22">
    <path fill="#FFF" fill-rule="evenodd" d="M18.872 15.991c-.554-.527-5.562-1.669-6.558-1.893 2.246-1.263 3.628-4.308 3.628-7.164 0-3.722-1.069-6.738-5.885-6.738-4.815 0-5.885 3.016-5.885 6.738 0 2.866 1.393 5.921 3.653 7.176-1.145.252-6 1.345-6.567 1.881-1.022.967-1.436 3.869-.414 5.32l9.255-.001 9.177.001c1.014-1.451.61-4.353-.404-5.32zm-.419 3.999H1.664c-.265-.996.008-2.482.435-2.979.67-.34 3.615-1.095 6.11-1.635h.543v-2.257c-2.035-.862-3.266-3.656-3.266-6.163 0-3.007.762-5.445 4.571-5.445 3.81 0 4.572 2.438 4.572 5.445 0 2.506-1.23 5.298-3.263 6.161v2.259h.621c2.465.546 5.372 1.303 6.044 1.636.421.501.686 1.982.422 2.978z"/>
</svg>
