<svg xmlns="http://www.w3.org/2000/svg" width="22" height="22">
    <path fill="#FFF" fill-rule="evenodd" d="M20.988 9.854C20.647 4.356 16.094-.001 10.51-.001 4.927-.001.374 4.356.033 9.854H0v1.313h.033c.341 5.498 4.894 9.854 10.477 9.854 5.584 0 10.137-4.356 10.478-9.854h.033V9.854h-.033zm-3.446-5.256h-1.167c-.698.194-1.548.353-2.501.467-.325-1.431-.774-2.638-1.31-3.513 1.981.453 3.714 1.545 4.978 3.046zm-9.65 5.256c.025-1.213.117-2.359.263-3.396.752.071 1.54.111 2.355.111.816 0 1.604-.04 2.357-.111.145 1.037.237 2.183.262 3.396H7.892zm5.237 1.313c-.025 1.212-.117 2.357-.262 3.393-.753-.069-1.541-.108-2.357-.108-.815 0-1.603.039-2.356.108-.145-1.037-.237-2.181-.262-3.393h5.237zM10.51 1.313c.883 0 1.662 1.528 2.137 3.865-.68.049-1.394.077-2.137.077-.742 0-1.456-.028-2.136-.077.475-2.337 1.254-3.865 2.136-3.865zm-2.053.239c-.536.875-.985 2.082-1.31 3.513-.953-.114-1.803-.273-2.5-.467H3.479c1.264-1.501 2.997-2.593 4.978-3.046zM3.023 5.188c.976.489 2.32.878 3.886 1.117-.18 1.099-.294 2.291-.324 3.549H1.342c.123-1.734.729-3.332 1.681-4.666zm-.028 10.605c-.935-1.327-1.531-2.909-1.653-4.626h5.243c.03 1.255.144 2.445.323 3.541-1.567.232-2.918.609-3.913 1.085zm.484.63h1.082c.719-.197 1.598-.359 2.585-.473.325 1.434.774 2.644 1.311 3.52-1.98-.453-3.714-1.546-4.978-3.047zm7.031 3.285c-.882 0-1.661-1.53-2.137-3.868.681-.047 1.395-.075 2.137-.075.743 0 1.457.028 2.138.075-.475 2.338-1.255 3.868-2.138 3.868zm2.054-.238c.537-.876.986-2.086 1.311-3.52.987.114 1.866.276 2.585.473h1.082c-1.264 1.501-2.997 2.594-4.978 3.047zm5.462-3.677c-.994-.476-2.345-.853-3.913-1.085.179-1.096.293-2.286.323-3.541h5.243c-.122 1.718-.718 3.299-1.653 4.626zm-3.59-5.939c-.03-1.258-.144-2.45-.324-3.549 1.566-.239 2.91-.628 3.886-1.117.951 1.334 1.558 2.932 1.681 4.666h-5.243z"/>
</svg>
