<svg xmlns="http://www.w3.org/2000/svg" width="31" height="31">
    <path fill-rule="evenodd" d="M30.314 28.221l-8.532-8.576c1.625-2.124 2.513-4.726 2.513-7.403 0-6.716-5.437-12.18-12.122-12.18S.05 5.526.05 12.242c0 6.717 5.438 12.181 12.123 12.181 2.662 0 5.251-.892 7.365-2.525l8.53 8.573c.298.301.699.468 1.125.468.423 0 .821-.165 1.121-.467.619-.62.62-1.63 0-2.251zm-9.192-15.979c0 4.96-4.015 8.996-8.949 8.996s-8.949-4.036-8.949-8.996c0-4.96 4.015-8.996 8.949-8.996s8.949 4.036 8.949 8.996z"/>
</svg>
