<svg xmlns="http://www.w3.org/2000/svg" width="23" height="22">
    <path fill="#FFF" fill-rule="evenodd" d="M16.155 6.074H6.918c-.365 0-.66.294-.66.659 0 .365.295.66.66.66h9.237c.365 0 .66-.295.66-.66 0-.365-.295-.659-.66-.659zm1.98-5.28H4.938C2.752.794.979 2.566.979 4.753v8.578c0 2.188 1.773 3.3 3.959 3.3h7.391l5.806 5.278v-5.278c2.186 0 3.959-1.773 3.959-3.959V4.753c0-2.187-1.773-3.959-3.959-3.959zm2.639 11.878c0 1.457-1.182 2.639-2.639 2.639h-1.32v3.666l-3.959-3.666H4.938c-1.458 0-2.639-.522-2.639-1.98V4.753c0-1.458 1.181-2.638 2.639-2.638h13.197c1.457 0 2.639 1.18 2.639 2.638v7.919zm-5.938-2.64H8.237c-.364 0-.659.295-.659.66 0 .365.295.661.659.661h6.599c.364 0 .66-.296.66-.661 0-.365-.296-.66-.66-.66z"/>
</svg>
