<svg xmlns="http://www.w3.org/2000/svg" width="28" height="27">
    <path fill="#7C7E84" fill-rule="evenodd" d="M.754 13.63l.309.068c.173-.659.496-1.289.972-1.837.564-.649 1.272-1.101 2.035-1.349l-.105-.283c-.012-.043.003-.082.048-.093l.188-.059c.035-.021.082.003.093.03l.104.312c.149-.037.299-.066.45-.087l-.047-.297c-.013-.044.021-.083.057-.085l.199-.033c.037-.002.075.013.087.058l.04.32c.156-.011.312-.014.468-.009l.003-.309c-.002-.037.041-.067.078-.07l.193.015c.036-.003.075.031.077.068l-.013.32c.154.017.307.04.458.072l.055-.299c.016-.039.051-.059.087-.061l.186.042c.046.006.076.049.061.087l-.057.314c.145.041.289.09.431.147l.114-.275c.016-.038.051-.058.097-.053l.179.07c.037.016.06.069.044.107l-.121.289c.138.068.273.142.405.225l.163-.262c.016-.038.06-.05.099-.016l.172.098c.029.025.041.07.016.099l-.158.278c.104.076.206.156.305.241l.047.044.204-.235c.025-.029.072-.023.101.002l.146.129c.029.025.041.069.016.098l-.216.248c.108.111.208.228.302.346l.235-.195c.035-.022.081-.016.102.02l.129.146c.021.036.015.081-.021.102l-.243.204c.085.126.163.257.235.389l.269-.145c.035-.021.073-.005.093.03l.007.012-1.293-3.193.077-.325.107-.163.32-.132.225.076.208.232 1.35 3.168-.058.223-.078.188-.101.047.313.766.438-.354-.808-2.165L9.51 8.794 8.207 7.708l-.064-.259.123-.064.779.434.016-.05.212.031.611.497c.158-.084.291-.021.291-.021.762.567 3.484 2.083 4.512 2.65.097-.104.19-.187.29-.25.378-.217.479-.078.671-.339.19-.277.362-.042.016-.922-.337-.891-.537-1.133-.524-1.718.031-.587-.309-1.121-.443-1.732-.135-.612.453-.817.724-1.502.289-.687.646-.548.878-1.011.25-.465.717-.707.85-.762.143-.046.094-.089.215-.189.111-.107.334.205.836-.195.501-.399 2.178-.716 2.178-.716s.009-.128.069-.179c.052-.039.704-.257.823-.257.109-.007.806.173.852.041.064-.131-.142-.327-.076-.423.067-.096.183.006.229-.125.027-.13.212-.481.238-.373.026.108.029 1.305.341 1.319.266.021.33-.314.342-.398l-.01-.063c-.006-.091.006-.184.105-.199.433-.067.825-.221 1.203-.421.07-.041.132-.073.202-.115.017-.02.035-.02.043-.03.149-.093.298-.184.437-.286.172-.021.274.137.399.211.424.435.753.961.977 1.53.036.135.065.279.084.415l.042-.049c.027-.01.046.006.047.024.023.191.099.87.186 1.577.073.643.157.921.191 1.018.001.019.003.037-.024.048-.106.044-.22-.022-.263-.11-.002-.018-.012-.027-.013-.045-.066-.159-.192-.388-.396-.684-.062-.106-.151-.201-.251-.322-.068.078-.138.238-.251.192-.107.043-.227.025-.297-.053l-.476-.671-.683.157c-.1.016-.148.111-.177.222-.031.076-.052.159-.064.252l-.126.675s.206.196.399.21l-.132.329c-.024.047-.039.084-.073.123-.017.019-.043.05-.05.076-.025.03-.068.061-.095.071-.207.042-.698.076-.896.108-.06-.069-.121-.156-.192-.252-.083-.14-.156-.272-.14-.291.013-.657-.082-.94-.23-.959l-.174.675s-.473.27-.459.727c-.005.457-.175 1.007-.28 1.325-.106.318-.239.492-.059.853.173.373.29.474.345.863.038.262.075.641.015.87l.097.182-.032.33-.184.232-.007.003c-.032.204-.084.493-.16.801.255.575.417 1.468-.521 2.138l.01.137c.577-.003 1.11.043 1.11.043l1.684.423.902.613-.253.155-.775-.23s-1.56-.23-1.756-.162c-.121.035-.513.279-.814.474l.121 1.63c.009-.003.019-.004.029-.003l.21-.005c.036-.003.075.031.078.067l.013.291c.143.009.286.023.431.044l.064.012.037-.266c.015-.038.049-.076.087-.06l.212.031c.046.006.077.049.061.087l-.033.281c.164.038.324.085.48.14l.086-.248c.006-.046.059-.068.097-.052l.196.068c.046.006.069.06.053.097l-.092.266c.155.068.305.141.45.223l.136-.23c.015-.038.06-.05.098-.035l.18.107c.038.015.06.069.035.098l-.136.251c.141.093.276.192.406.299l.166-.206c.025-.029.069-.041.109-.007l.164.125c.029.026.041.071.008.11l-.168.224c.121.114.235.234.344.359l.2-.172c.025-.029.08-.033.111.011l.138.155c.03.026.024.072-.01.111l-.204.188c.099.134.191.272.277.416l.225-.141c.035-.021.081-.014.112.029l.104.175c.021.036.006.091-.029.113l-.236.147c.075.149.142.302.202.459l.244-.101c.045-.012.082.004.103.039l.079.205c.012.044-.004.082-.048.095l-.261.106c.048.16.088.323.12.488l.261-.046c.046-.012.075.013.087.058l.042.207c.013.045-.021.083-.058.086l-.275.064c.019.164.03.33.032.496l.256-.004c.054-.003.093.031.087.077l.006.21c.002.036-.031.075-.086.078l-.272.005c-.008.145-.022.291-.043.437l-.012.065.266.037c.037.015.066.041.061.087l-.031.211c-.005.047-.041.067-.087.061l-.279-.039c-.039.166-.086.328-.141.486l.248.087c.046.005.058.05.052.097l-.068.195c-.016.038-.059.068-.097.052l-.266-.093c-.068.158-.143.31-.226.458l.225.12c.038.016.06.069.035.098l-.096.19c-.016.037-.069.06-.108.025l-.241-.128c-.093.14-.192.276-.298.406l.205.166c.029.025.033.079.008.109l-.125.164c-.026.028-.08.033-.11.007l-.224-.168c-.114.12-.234.235-.36.342l.172.201c.03.026.024.071-.01.11l-.154.14c-.035.02-.09.024-.111-.012l-.188-.203c-.134.099-.273.189-.417.275l.132.217c.031.044.015.082-.02.102l-.174.122c-.045.011-.091.006-.112-.029l-.147-.238c-.151.076-.306.144-.464.204l.096.233c.012.045.006.092-.039.103l-.194.087c-.045.012-.092-.011-.104-.056l-.104-.25c-.16.046-.323.086-.488.118l.052.259c.003.037-.013.075-.058.087l-.207.042c-.044.012-.083-.022-.096-.067l-.055-.267c-.164.018-.329.028-.496.031l.005.255c-.006.047-.04.086-.076.088l-.21.006c-.046-.006-.085-.04-.079-.086l-.005-.272c-.146-.01-.291-.023-.438-.044l-.067-.013-.044.257c-.006.046-.04.068-.087.061l-.202-.023c-.046-.005-.077-.049-.071-.096l.046-.271c-.168-.04-.332-.087-.492-.143l-.077.251c-.016.037-.051.058-.097.052l-.197-.07c-.047-.023-.068-.059-.052-.096l.083-.27c-.154-.067-.304-.142-.449-.223l-.119.224c-.016.039-.069.06-.108.027l-.19-.097c-.037-.016-.05-.06-.026-.107l.127-.24c-.139-.093-.274-.192-.403-.299l-.158.212c-.026.029-.08.033-.109.008l-.174-.134c-.029-.026-.033-.081-.008-.11l.176-.217c-.115-.109-.224-.223-.328-.342l-.143.132c-.035.021-.081.014-.11-.011l-.139-.154c-.021-.034-.025-.09.01-.111l.152-.139c-.106-.142-.205-.29-.296-.442l-.217.132c-.043.03-.091.005-.112-.03l-.113-.184c-.029-.025-.015-.081.02-.101l.245-.141c-.062-.124-.119-.251-.171-.38l-.25.094c-.035.021-.083-.003-.104-.039l-.069-.196c-.02-.034.004-.082.039-.102l.261-.099c-.06-.187-.108-.378-.145-.574l-.261.053c-.036.001-.084-.023-.086-.059l-.043-.207c-.012-.045.012-.092.057-.104l.277-.048c-.019-.167-.03-.334-.032-.503l-.265.005c-.037.001-.076-.033-.079-.068l-.005-.21c-.004-.055.039-.085.076-.088l.282-.004c.009-.142.022-.286.043-.43l.012-.066-.257-.045c-.046-.006-.077-.049-.071-.095l.032-.194c.006-.045.049-.076.095-.07l.273.041c.039-.162.085-.322.139-.478l-.248-.086c-.038-.015-.068-.059-.053-.097l.069-.196c.014-.056.059-.068.096-.053l.271.084c.067-.154.141-.303.222-.448l-.235-.129c-.038-.015-.05-.06-.026-.107l.106-.181c.015-.038.06-.05.098-.034l.249.136c.093-.14.192-.275.297-.403l-.211-.158c-.029-.026-.033-.08-.008-.109l.134-.174c.025-.029.07-.041.109-.008l.218.176c.116-.121.237-.238.365-.346l-.18-.195c-.02-.035-.025-.089.011-.111l.154-.139c.034-.038.08-.032.119.002l.181.213c.133-.098.272-.19.414-.274l-.141-.226c-.02-.035-.006-.091.029-.112l.184-.113c.035-.021.073-.005.104.039l.147.236c.15-.074.304-.142.462-.202l-.095-.253c-.021-.035.003-.082.048-.094l.186-.077c.045-.013.082.003.103.039l.101.268.128-.036-.606-2.123-1.315 1.085.028-.368.948-1.149-.316.099-2.264 3.146c-.034.038-.069.059-.114.071l-2.935.722c-.045.013-.073.006-.111-.01l-1.162-.413c-.093-.03-.147-.145-.117-.239l.006-.012-.429-.151-.515-.174-.524-.301-.104-.176-.815-.116c-.026.077-.055.154-.085.23l.287.12c.037.016.058.051.043.089l-.07.179c-.016.037-.059.068-.097.052l-.301-.126c-.067.136-.141.269-.222.4l.262.164c.038.015.041.07.026.107l-.107.162c-.016.038-.061.051-.09.026l-.286-.164-.002-.003c-.076.103-.155.205-.241.303l-.043.048.234.205c.03.025.033.079.008.108l-.127.145c-.025.029-.079.033-.108.008l-.244-.211-.004-.005c-.111.107-.227.208-.346.301l.196.235c.021.035.015.081-.01.111l-.156.119c-.026.03-.072.024-.092-.011l-.21-.251-.002-.003c-.13.087-.265.167-.402.24l.156.264c.021.036.016.081-.02.103l-.185.095c-.035.02-.073.005-.093-.03l-.155-.286c-.142.062-.286.117-.433.166l.098.291c.02.034-.004.081-.039.102l-.187.059c-.045.012-.083-.004-.096-.048l-.104-.312c-.148.037-.298.065-.449.087l.049.314c.002.037-.023.066-.068.078l-.191.022c-.044.012-.074-.012-.076-.05l-.06-.325.001-.001c-.153.009-.305.012-.458.008l-.004.309c-.006.047-.032.075-.078.069l-.191.004c-.046-.005-.075-.031-.07-.077l-.005-.329.001-.002c-.148-.015-.294-.038-.44-.069l-.065.298c-.006.045-.05.077-.088.061l-.194-.033c-.037-.016-.058-.05-.061-.086l.069-.316.002-.006c-.148-.042-.295-.093-.439-.151l-.11.296c-.016.036-.06.049-.098.033l-.179-.069c-.037-.016-.058-.051-.042-.089l.114-.309.001-.001c-.137-.067-.271-.14-.402-.222l-.162.262c-.016.038-.061.049-.099.034l-.162-.108c-.038-.016-.05-.06-.035-.098l.173-.277.003-.004c-.107-.077-.212-.16-.314-.248l-.047-.043-.204.234c-.025.029-.07.042-.099.016l-.156-.135c-.03-.026-.024-.072.001-.101l.212-.244.004-.003c-.108-.111-.209-.227-.304-.346l-.242.186c-.025.03-.071.024-.1-.002l-.121-.156c-.029-.025-.033-.081.002-.101l.25-.209.004-.001c-.086-.127-.165-.259-.237-.393l-.269.146c-.035.021-.081.014-.102-.021l-.086-.176c-.02-.035-.014-.082.021-.102l.285-.155c-.062-.14-.117-.282-.164-.427l-.293.091c-.035.021-.083-.004-.094-.03l-.059-.188c-.012-.044.003-.082.038-.103l.312-.103c-.034-.138-.062-.277-.084-.417l-.235.037c-.044.012-.083-.023-.086-.058l-.032-.199c-.003-.036.012-.073.057-.086l.257-.032c-.013-.163-.017-.326-.013-.49l-.309-.012c-.036.001-.075-.031-.069-.078l.005-.183c.005-.047.031-.076.068-.078l.328.014c.013-.125.03-.249.053-.372l-.303-.067c-.046-.006-.066-.041-.061-.087l.042-.185c.006-.047.041-.068.087-.062zm9.584-.737l-.149.068-.162-.123c-.007.01-.016.02-.028.027l-.285.155c.063.141.118.286.166.432l.291-.097c.035-.02.083.004.095.048l.059.189c.021.035-.003.082-.039.084l-.312.104c.037.148.066.298.088.449l.301-.038.17-.137c-.018-.088.009-.189.082-.245l.072-.058-.349-.858zm-5.053 2.662c.152.027.297-.008.42-.079l-.712-.43.144-.421.784-.007c-.093-.158-.249-.276-.441-.309-.351-.049-.672.183-.72.534-.058.341.175.664.525.712zm-1.013.006c-.075.106.048.299.233.459.194.151.41.237.503.13.058-.085-.033-.336-.217-.478-.184-.143-.443-.198-.519-.111zm1.877.241c-.104-.041-.277-.046-.425.015-.213.088-.39.292-.346.399.046.125.282.108.513.019.089-.034.169-.076.231-.121l.027-.312zm-.174-1.591c.184.143.443.18.51.102.093-.107-.04-.309-.234-.458-.193-.152-.409-.237-.484-.131-.076.087.033.335.208.487zm9.127-.511l-.011-.008c-.267.151-.488.278-.623.374l.043.059.361.194.441.042.221-.233-.213-.49-.219.062zm-1.638-1.331l-.232-.189.114.316c.037-.04.077-.081.118-.127zm-2.581 1.865c-.06.025-.125.026-.184.005l-.224.183.002.018c.004.014.002.028-.003.041l.48-.072-.071-.175zm1.868-1.663c.013.086-.014.178-.088.237l-.663.537.096.227c.143-.126.31-.239.459-.362.157-.131.288-.214.547-.466l-.118-.362-.233.189zm-1.144 1.571c.016-.126.068-.194.12-.233l-.099-.264-.424.342.148.363.274-.042c-.021-.056-.03-.111-.019-.166zm-.794-3.688l.984 2.398.545-.441c.077-.062.175-.072.258-.037l.302-.245-.096-.295-1.35-1.097c-.37-.104-.556-.215-.643-.283zm10.139-1.833c-.044-.363-.151-.575-.084-.789.077-.206-.11-.267-.145-.621-.052-.353-.145-.109-.379-.585-.226-.469.06-.443-.197-1.092-.04-.104-.071-.198-.095-.283-.101-.004-.164-.01-.164-.01s-1.16.51-1.419.592c-.268.073-.368-.167-.478-.041 0 0-.063.27.07.47.125.211.011.146.016.474.005.329.16.583.186.691.026.107.48.451.567.783.08.34-.259.593.258 1.435.223.363.193.69.087.947l.281-.014.393.118.261-.3.399-.302.446.021c.069-.133.122-.252.118-.297.001-.059-.003-.17-.006-.268-.042-.021-.085-.05-.128-.088-.166-.144.066-.471.013-.841zm.161 2.387l.057.768c.169-.272.296-.649.389-1.013-.031-.065-.062-.124-.093-.177l-.345.416-.008.006zm.601-.982l-.102.038-.069.255c.027.04.056.087.088.142.034-.159.061-.308.083-.435zm-.031 1.049c-.118.391-.278.775-.489 1.018l.04.538c.602-.485.598-1.086.449-1.556zm-2.386 9.067l.067.252c.005-.009.007-.019.013-.028.025-.03.138-.102.138-.102l-.092-.148.009.008c.055-.004.099-.034.123-.082l-.01-.008.025-.029c.099-.152.306-.194.451-.086.109.068.159.204.129.329.035.005.065-.002.084-.024.034-.039.011-.11-.047-.161.016-.02.033-.038.068-.06.05.061.124.074.168.043.033-.038.02-.101-.04-.17.035-.02.052-.04.079-.051.05.061.116.101.16.071.043-.031.047-.113.005-.183l.08-.033c.033.08.1.121.154.099.034-.02.056-.104.023-.184.026-.011.053-.023.089-.024.015.081.074.131.128.128.045-.013.067-.096.052-.178l.019-.005-.139-1.853c-.131.018-.26.041-.387.073l.046.192c.093.285-.082.645-.3.916-.334.443-1.306.518-1.095 1.298zm1.623 2.263c-.018.138.19.233.438.263.249.028.483-.025.492-.154.004-.037-.021-.08-.063-.123l-.178.205-.419-.364c-.144.03-.263.099-.27.173zm1.267-.042c.115.083.306-.057.447-.258.15-.194.226-.418.12-.493-.096-.066-.344.042-.476.234-.143.184-.169.45-.091.517zm-.085-2.204c.018-.138-.19-.233-.438-.262-.027-.002-.054-.004-.08-.004l.024.314.159.138c.178-.021.327-.1.335-.186zm-.893-.161c-.014.017-.025.037-.027.06-.003.03.012.063.038.096l-.011-.156zm1.149.861l.433.376c.115-.053.098-.29 0-.511-.098-.222-.256-.393-.381-.349-.089.049-.118.281-.052.484zm-1.667.939l-.368-.32.091-.105c-.065-.043-.127-.063-.165-.045-.133.055-.108.282 0 .512.09.23.248.403.371.34.078-.027.11-.201.071-.382zm.063-1.071c.133-.192.169-.45.082-.526-.106-.075-.289.056-.448.26-.141.201-.208.415-.102.49.088.076.326-.041.468-.224zm-.916.467c-.014.015-.03.029-.046.042.022-.011.038-.024.046-.042zm.086-.488c.019-.008.034-.019.041-.034.009-.02.005-.041-.006-.062-.006.033-.019.064-.035.096zm.161-.271c.009-.018.008-.037.002-.057-.028.04-.065.071-.106.092.046.01.087-.002.104-.035zm-2.18.306c-.296 1.994 1.079 3.853 3.082 4.144.03.005.061.008.092.012l.004-.064c.015-.056.057-.105.102-.117l.026-.148c-.002-.018.015-.037.034-.038l.055.014c.01.008.02.016.021.035l-.016.156c.039.034.051.079.055.133l-.009.054c1.851.095 3.505-1.228 3.774-3.107.289-1.985-1.087-3.844-3.081-4.145-.212-.031-.422-.043-.63-.037l.151 2.001c.013.013.027.025.046.03.054-.004.095-.071.106-.164.037-.002.065.005.093.012l-.008.01c-.022.084.011.164.067.178.046.006.106-.044.118-.136l.009-.01c.027.008.055.014.083.023.01.007.001.018.001.018-.031.074-.015.156.032.18.047.025.116-.036.147-.111 0 0 .009-.009-.001-.018.038.015.057.033.095.048l-.017.02c-.041.067-.044.149.003.172.047.025.127-.008.158-.083l.017-.019.078.068s-.018.001-.017.019c-.05.058-.063.132-.024.166s.12.02.169-.058l.017-.019c.021.035.04.053.069.078-.008.009-.008.009-.026.01-.051.058-.082.134-.052.178.039.034.121.018.181-.031l.017-.019c.029.025.04.052.061.087-.01-.009-.018.001-.018.001-.079.051-.11.127-.079.169.03.044.103.039.173-.002.008-.01.026-.011.026-.011.011.027.023.053.043.088-.009-.008-.018.002-.026.012-.08.032-.121.1-.109.144.03.044.104.056.185.023.018 0 .018 0 .026-.01.012.027.014.063.025.089-.008.011-.008.011-.027.011-.081.015-.14.083-.118.136.012.046.088.077.167.044.01.009.019-.001.028.006.002.019.004.056.015.082-.008.01-.018.001-.026.01-.091.007-.152.057-.148.111.013.046.08.086.17.08 0 0 .009-.01.018-.001-.006.028.004.055.007.091-.018.001-.018.001-.028-.007-.091.006-.153.038-.167.093.004.055.071.096.153.1.01.008.01.008.019-.002.002.037-.005.065-.02.102l-.01-.008c-.092-.013-.164.011-.178.067-.006.045.044.107.136.118l.01.009c-.007.027-.014.055-.03.093-.01-.008-.01-.008-.019-.018-.076-.03-.157-.016-.171.04-.024.048.025.108.101.14.01.007.01.007.019.016-.017.02-.024.048-.049.077l-.01-.009c-.076-.049-.149-.044-.173.003-.042.049-.001.118.076.169 0 0 .008-.01.018-.002l-.067.077-.01-.007c-.068-.06-.142-.073-.176-.034-.042.048-.009.129.059.188-.017.019-.034.038-.069.059l.008-.01c-.068-.059-.143-.09-.177-.051-.043.03-.028.111.031.18-.025.029-.052.041-.078.051-.042-.069-.117-.101-.161-.071-.053.022-.048.095.004.173-.027.012-.062.032-.089.043-.033-.08-.099-.12-.153-.099-.045.012-.048.095-.024.166l-.08.034c-.033-.081-.084-.141-.137-.12-.045.013-.067.078-.052.16-.037.002-.064.013-.091.005-.015-.08-.056-.133-.11-.129-.054.004-.077.069-.081.152-.027-.007-.064-.004-.092-.012-.005-.073-.037-.134-.083-.141-.046-.005-.097.053-.109.127-.029-.006-.047-.006-.083-.004.003-.082-.02-.154-.066-.16-.046-.006-.098.035-.121.101l-.084-.022c.023-.066.008-.146-.038-.153-.047-.024-.099.016-.14.083-.02-.017-.047-.024-.077-.05.032-.057.027-.129-.02-.154-.029-.025-.101-.001-.142.065l-.068-.06c.041-.066.046-.13.007-.164-.038-.016-.101-.002-.153.038l-.068-.059c.051-.059.065-.115.034-.158-.029-.026-.093-.03-.153.02-.011-.027-.041-.053-.052-.079.061-.049.075-.106.054-.14-.03-.044-.095-.049-.157-.018l-.032-.08c.051-.039.084-.096.072-.141-.021-.035-.077-.049-.148-.026-.003-.036-.024-.072-.025-.09.062-.031.104-.081.092-.125-.012-.045-.07-.078-.142-.054-.002-.036-.013-.063-.016-.101.073-.005.115-.053.121-.098-.012-.046-.061-.088-.133-.083l-.005-.067c-.058.022-.122.026-.182.008l-.127.146c-.101.116-.246.007-.211-.132l.093-.244c-.025-.09-.013-.182.045-.268l.042-.048c-.044-.07-.058-.149-.048-.227-.119-.313-.255-.759.013-1.031.308-.296 1.128-.59 1.246-1.238.027-.171.007-.331-.048-.481-1.344.373-2.415 1.505-2.634 2.977zm2.677-4.35l-.055-.261c-.012-.044.022-.083.058-.086l.134-.027-.107-1.466-.106-.008c-.249-.254-.613-.244-.785-.221l.593 2.126c.088-.021.178-.04.268-.057zm-4.158.489l1.994-2.762-1.848-.83-.648.183.157.619.563-.057.382.366.282.757-.258.474-.322.233-.274.119-.05.451-.139.238-.172.021-.178-.188-.151-.338-.637.181-.298.56-.753.317-.358.316 2.708-.66zm-2.786.678l-.042.006.008.003.034-.009zm-10.339-.267c1.334 1.159 3.352 1.02 4.508-.31.224-.257.398-.54.525-.837l-.276-.04-.098-.025-.198.229-.246.262c-.086.08-.208.161-.311.123l-.929-.32c.006.029.018.06.035.089l.01.009c-.027.01-.044.029-.079.051l-.001-.018c-.041-.07-.118-.12-.162-.09-.044.013-.048.095-.015.175l.01.009c-.026.01-.061.031-.098.033l.009-.009c-.033-.081-.092-.131-.136-.118-.064.013-.077.087-.052.177-.027.011-.053.021-.09.024l.009-.009c-.015-.082-.075-.151-.12-.139-.063.013-.094.089-.079.169-.027.012-.054.004-.091.007.003-.082-.038-.152-.094-.166-.055.003-.096.07-.089.16-.036.003-.064-.003-.092-.011.003-.082-.02-.154-.076-.168-.046-.007-.097.051-.118.136l-.084-.022c.021-.084-.002-.155-.049-.18-.047-.005-.098.035-.13.11-.028-.007-.065-.023-.085-.04.031-.075.026-.148-.021-.172-.048-.024-.099.016-.14.083-.038-.016-.058-.033-.077-.05.041-.067.036-.139-.003-.173-.029-.026-.101-.002-.151.056-.02-.016-.049-.042-.068-.059.05-.058.063-.132.024-.167-.029-.025-.102-.02-.162.03-.011-.027-.031-.043-.051-.078.051-.041.074-.106.053-.141-.03-.043-.094-.048-.164-.006-.011-.028-.023-.054-.042-.071.06-.05.092-.107.08-.151-.03-.044-.094-.049-.166-.025l-.033-.081c.07-.04.112-.09.1-.135-.012-.044-.078-.067-.149-.044-.003-.036-.014-.063-.016-.1.063-.013.115-.053.111-.108-.013-.045-.07-.078-.142-.073l-.007-.09c.073-.005.125-.046.131-.091-.004-.054-.061-.087-.126-.092-.002-.036.005-.064.012-.092.064.005.126-.028.132-.073.006-.046-.034-.099-.108-.111.006-.029.014-.057.029-.094.066.023.128-.008.143-.046.016-.038-.016-.1-.082-.122.007-.028.015-.056.03-.094.075.032.138.019.154-.02.024-.047-.008-.109-.065-.141.017-.02.033-.057.05-.076.057.032.121.036.155-.002.033-.039.002-.101-.047-.143l.059-.068c.057.032.123.055.157.016.033-.039.02-.102-.02-.153.016-.02.042-.049.068-.06.05.061.116.083.15.044.035-.02.039-.084-.003-.155.027-.011.062-.031.079-.052.042.071.099.104.153.082.035-.02.048-.094.024-.166l.08-.033c.023.072.082.123.135.1.045-.012.067-.078.044-.148.027-.011.053-.022.09-.025.005.072.063.122.118.119.045-.012.077-.069.062-.151.037-.001.063-.012.091-.005.005.073.047.142.102.14.045.005.086-.062.09-.144.036-.003.064.005.092.012-.013.074.02.154.066.16.056.014.115-.054.118-.137.038.016.066.023.094.031-.031.075.001.155.039.171.056.014.117-.037.138-.12.038.016.066.024.094.03l-.009.01c-.031.076-.034.158.013.182.047.023.118-.018.167-.094l-.01-.008c.038.015.057.032.087.057-.06.068-.063.151-.024.185.048.024.119 0 .178-.067l-.001-.018.078.068-.009.009c-.069.059-.09.143-.051.177s.12.019.179-.049l.008-.01c.021.035.041.052.07.078-.009.009-.018.001-.027.01-.06.051-.091.126-.061.169.031.044.104.039.182-.013l.009-.009c.019.017.04.052.051.08-.009.009-.009.009-.027.01-.07.042-.111.109-.08.151.022.054.104.058.174.016.01.008.018-.001.018-.001.011.026.023.053.044.088-.01-.009-.019.001-.027.01-.082.016-.141.084-.118.137.012.045.096.066.175.034.01.008.019-.002.019-.002.01.027.013.063.024.09-.008.01-.018.002-.026.011-.035.006-.065.019-.089.037l1.552.019c-.062-.81-.431-1.597-1.093-2.173-1.335-1.159-3.353-1.021-4.509.311-1.157 1.331-1.013 3.348.321 4.508zm1.146-2.499c.048-.232-.053-.49-.163-.501-.13-.027-.233.19-.271.43-.038.24-.003.475.135.493.102.021.27-.192.299-.422zm.943-1.125c-.045-.125-.273-.118-.504-.029-.231.089-.412.239-.367.363.044.106.303.143.525.065.213-.089.39-.292.346-.399z"/>
</svg>
