<svg xmlns="http://www.w3.org/2000/svg" width="281" height="33">
    <path fill="#FFF" fill-rule="evenodd" d="M244.412 17.272h1.265c.148.023.21.1.185.228l-.253.123h-1.265l.068-.351zm.331 4.271h-.352c-.152 0-.225-.228-.218-.685l.253-.123h.703l-.007.58-.379.228zm31.658 2.901l-.249.105h-2.197l-.543.351h-1.143c-.157.024-.248.1-.273.229.844 0 1.258.041 1.242.123-2.366 2.953-5.563 5.145-9.59 6.574-1.919.469-3.623.704-5.111.704h-1.266c-.902 0-1.501-.082-1.798-.246-.168.082-.293.123-.375.123-3.276-.575-5.713-1.694-7.311-3.358-1.245-1.254-2.195-2.519-2.849-3.797-.114-.082-.258-.123-.433-.123h-1.038l.044-.229h1.143c.046-.233.15-.351.315-.351h1.494l.6-.105c-.754-2.274-1.007-4.354-.758-6.241l.069-.351.167-.229c.07 0 .097.041.082.123 1.176-.082 2.033-.123 2.572-.123h1.723l.024-.123c.029-.152-.032-.228-.184-.228h-4.149c-.094 0-.235-.27-.423-.809h-1.969c-.152 0-.214-.076-.184-.228.03-.153.363-.27 1-.352l.089-.457c-.083 0-.193-.035-.331-.105-.167.07-.291.105-.373.105-.04-.152-.053-.269-.037-.352.741-2.671 2.259-5.361 4.554-8.068.86-.925 1.571-1.388 2.133-1.388.996 0 1.517-.117 1.562-.352-.228-.153-.441-.229-.641-.229h-.123l-.6.106-.061-.229.149-.228c-.305 0-.442-.076-.412-.229.672-.503 1.892-1.236 3.66-2.197h1.266c2.301-1.23 5.426-1.846 9.376-1.846 2.73 0 4.927.58 6.588 1.74-.154.071-.314.106-.478.106l-.044.228c.281 0 1.211.733 2.79 2.198.457 0 .891.152 1.301.457h1.283l.538.123-.024.123c-.029.152-.12.229-.272.229h-.58c-.071 0-.098-.042-.082-.124-.145.082-.346.124-.604.124l-.021.105c1.369 1.945 2.167 4.564 2.396 7.857l-.379.229h-2.777l-.024.123c1.136 0 1.786.035 1.949.106.142-.071.342-.106.6-.106h.228c.305 0 .315.733.031 2.197-.006.152.055.229.184.229h1.16c.071 0 .099.035.085.105l.267-.105h.105c.46.047.673.158.639.333-.499 2.567-1.733 5.151-3.702 7.753zm-5.708-8.086l-.249.105h-.809c-.316 0-.325-.767-.027-2.303l-.539-.122h-3.938l.045-.229c1.173-.071 2.03-.106 2.569-.106h1.723l.024-.123c-.329-2.05-1.178-3.626-2.546-4.728-1.537-1.079-2.856-1.618-3.957-1.618-3.223 0-6.163 1.653-8.82 4.957-.803 1.36-1.244 2.245-1.323 2.655l-.045.228.611.475-.044.229c-.03.152-.127.228-.29.228h-.563l-.068.352h2.074c.129 0 .194.269.195.808 1.638.071 2.862.106 3.67.106h.914l-.044.228c-.032.164-.124.246-.276.246-.125-.082-.228-.123-.31-.123-.082 0-.131.041-.147.123l-.556-.123c-.282 0-1.368.041-3.258.123l-.11.563c.009 1.887.64 3.586 1.894 5.097.742.587 1.102.932 1.082 1.038l-.249.105h-1.617l.061.229-.024.122h-.686l-.044.229h1.389c1.296.387 2.178.58 2.647.58.445 0 1.2-.117 2.265-.351.03-.152-.032-.229-.184-.229h-.58l.044-.229h1.266c.082 0 .644-.117 1.686-.351h1.16c.176 0 .335-.035.477-.105.139.07.249.105.331.105 1.637-.644 3.261-2.068 4.872-4.271.757-1.547 1.157-2.432 1.201-2.655l.18-.932c.025-.128-.334-.239-1.077-.333zm2.033 1.388l-.15.229-.02.105h.105c.03-.152.121-.228.273-.228l.021-.106h-.229zm-14.298 2.303c-.03.153-.121.229-.273.229h-.123c-.153 0-.214-.076-.184-.229l.068-.352c.053-.152.144-.228.273-.228h.123c.148.024.209.1.184.228l-.068.352zm-39.662-4.482c-.153 0-.214-.077-.184-.229.053-.152.143-.228.272-.228h.247c.147.023.209.099.184.228l-.045.229h-.474zm1.204-.229c.023-.117.163-.234.42-.351.75.058 1.109.175 1.075.351-.03.152-.121.229-.273.229h-1.037c-.153 0-.214-.077-.185-.229zm2.371-.351c.164 0 .238.041.222.123.919-.082 1.577-.123 1.976-.123h12.005c.164 0 .309.041.434.123.144-.082.305-.123.48-.123h2.075l.546.808-.133.686c-.428.21-.76.714-.997 1.511-.288 1.126-.472 1.893-.552 2.303.387 0 .565.076.536.229l-.024.123c-1.461 3-2.526 4.5-3.194 4.5-.113-.082-.257-.123-.433-.123-2.437 3.258-6.128 5.642-11.074 7.154-1.346.234-2.33.352-2.951.352h-2.197c-5.906 0-10.073-2.503-12.5-7.506h-3.112c-.346-.211-.748-1.518-1.208-3.92l.137-.703h3.111l.259-3.692.109-.562c.909-2.93 1.498-4.395 1.767-4.395 1.502-.07 2.476-.106 2.921-.106l.044-.228h-.123c-.808 0-2.031-.04-3.667-.123.022-.117.439-.27 1.249-.457 2.213-3.738 5.046-6.469 8.498-8.191 1.218 0 2.314-.27 3.285-.809 2.242-.926 4.945-1.389 8.11-1.389 2.742 0 5.152.657 7.229 1.969l-.02.106c-.411 0-.764.041-1.061.123l-.021.105c1.575.82 3.051 2.514 4.428 5.08.75 0 1.169.229 1.256.686-.021.105-.272.223-.754.351-.068.352-1.482 1.085-4.241 2.198-1.296.761-2.179 1.142-2.647 1.142h-.914l-1.686-2.637c-.506-.292-.765-.527-.777-.703l.02-.105h.457l.048-.246c-.106 0-.559-.229-1.361-.686h-.475c-.715 0-1.259-.152-1.634-.457h-1.846c-.175 0-.335.035-.477.106l-.208-.106c-2.822.833-4.765 1.91-5.831 3.235-.23.222-.758.375-1.583.457l-.02.105c-.009.164.051.246.181.246.152 0 .236-.04.252-.123l1.136.123h2.074l-.02.106c-.03.152-.121.228-.273.228h-2.777c-.517.305-1.227 1.612-2.132 3.92l-.181.932c-.182.938-.192 2.168-.031 3.691l-.249.106h-1.16l-.709.123c-.137-.082-.246-.123-.328-.123l-.252.123c-.137-.082-.246-.123-.328-.123l-.024.123c.231 1.465 1.03 2.695 2.395 3.691.657.539 1.144.809 1.46.809h2.883c1.7.539 2.96.808 3.781.808 1.698-.539 2.746-.808 3.145-.808.136.082.245.123.328.123 1.973-1.172 3.035-1.904 3.186-2.198.506-.316 1.279-1.124 2.316-2.425l.024-.123h-9.228c-.153 0-.214-.076-.185-.229l.625-3.217c.432-.234.663-.427.692-.58l-.061-.228c.098-.141.164-.299.198-.475-.369-.094-.541-.204-.515-.334.19-.199.289-.316.296-.351zm-16.604-3.569l-.075-.246c.053-.152.144-.228.273-.228h.351l-.068.351c-.286.083-.446.123-.481.123zm-37.906 5.854h1.266c.147.023.209.1.184.228l-.253.123h-1.265l.068-.351zm.331 4.271h-.351c-.153 0-.226-.228-.219-.685l.253-.123h.703l-.007.58-.379.228zm31.409 3.006h-2.197l-.543.351h-1.143c-.157.024-.248.1-.272.229.843 0 1.257.041 1.241.123-2.366 2.953-5.563 5.145-9.59 6.574-1.919.469-3.623.704-5.111.704h-1.266c-.902 0-1.501-.082-1.797-.246-.169.082-.294.123-.376.123-3.275-.575-5.712-1.694-7.311-3.358-1.245-1.254-2.195-2.519-2.849-3.797-.114-.082-.258-.123-.433-.123h-1.038l.045-.229h1.142c.046-.233.15-.351.315-.351h1.494l.6-.105c-.754-2.274-1.006-4.354-.758-6.241l.069-.351.167-.229c.07 0 .097.041.082.123 1.176-.082 2.033-.123 2.572-.123h1.723l.024-.123c.029-.152-.032-.228-.184-.228h-4.149c-.094 0-.235-.27-.423-.809h-1.969c-.152 0-.213-.076-.184-.228.03-.153.363-.27 1-.352l.089-.457c-.082 0-.193-.035-.331-.105-.166.07-.291.105-.372.105-.041-.152-.053-.269-.038-.352.741-2.671 2.26-5.361 4.554-8.068.86-.925 1.571-1.388 2.133-1.388.996 0 1.517-.117 1.563-.352-.229-.153-.442-.229-.641-.229h-.124l-.6.106-.061-.229.149-.228c-.304 0-.442-.076-.412-.229.672-.503 1.892-1.236 3.661-2.197h1.265c2.301-1.23 5.427-1.846 9.376-1.846 2.73 0 4.927.58 6.588 1.74-.154.071-.313.106-.477.106l-.045.228c.282 0 1.212.733 2.791 2.198.457 0 .89.152 1.3.457h1.283l.538.123-.024.123c-.029.152-.12.229-.272.229h-.58c-.071 0-.098-.042-.082-.124-.145.082-.346.124-.604.124l-.021.105c1.369 1.945 2.168 4.564 2.396 7.857l-.379.229h-2.777l-.024.123c1.137 0 1.786.035 1.949.106.142-.071.342-.106.6-.106h.228c.305 0 .315.733.031 2.197-.006.152.055.229.184.229h1.16c.071 0 .099.035.085.105l.267-.105h.105c.46.047.673.158.639.333-.499 2.567-1.732 5.151-3.702 7.753l-.249.105zm-5.459-8.191l-.249.105h-.808c-.317 0-.326-.767-.028-2.303l-.539-.122h-3.937l.044-.229c1.174-.071 2.03-.106 2.569-.106h1.723l.024-.123c-.329-2.05-1.177-3.626-2.546-4.728-1.536-1.079-2.856-1.618-3.957-1.618-3.223 0-6.163 1.653-8.82 4.957-.803 1.36-1.244 2.245-1.323 2.655l-.045.228.611.475-.044.229c-.03.152-.126.228-.29.228h-.563l-.068.352h2.074c.129 0 .194.269.195.808 1.638.071 2.862.106 3.67.106h.915l-.044.228c-.033.164-.125.246-.277.246-.125-.082-.228-.123-.31-.123-.082 0-.131.041-.147.123l-.556-.123c-.281 0-1.368.041-3.258.123l-.11.563c.009 1.887.64 3.586 1.894 5.097.742.587 1.102.932 1.082 1.038l-.249.105h-1.617l.061.229-.024.122h-.686l-.044.229h1.389c1.296.387 2.178.58 2.647.58.445 0 1.2-.117 2.265-.351.03-.152-.032-.229-.184-.229h-.58l.044-.229h1.266c.082 0 .644-.117 1.686-.351h1.16c.176 0 .335-.035.477-.105.139.07.249.105.332.105 1.636-.644 3.26-2.068 4.871-4.271.757-1.547 1.157-2.432 1.201-2.655l.181-.932c.025-.128-.335-.239-1.078-.333zm2.033 1.388l-.149.229-.021.105h.105c.03-.152.121-.228.273-.228l.021-.106h-.229zm-14.298 2.303c-.03.153-.121.229-.273.229h-.123c-.153 0-.214-.076-.184-.229l.068-.352c.053-.152.144-.228.273-.228h.123c.148.024.209.1.184.228l-.068.352zm-22.033 10.652c-.029.153-.126.229-.29.229l-.697-.123c-.145.082-.352.123-.621.123l-.048.246c.058 0 .292.035.7.105l.741-.105.079.228-.208 1.073c-.032.164-.13.246-.294.246h-15.891c-.668 0-1.732-.041-3.193-.123l.209-1.072c.022-.117-.073-.235-.284-.352h-1.072l.048-.246h1.072c.105 0 .245-.118.42-.351l2.224-11.461c-.492-.305-.729-.505-.71-.598l2.435-12.551c.03-.152-.428-.27-1.373-.351l.024-.124c.743-.023 1.428-.263 2.056-.72.234 0 .366-.076.395-.229l.42-2.162c.091-.469-.139-.703-.689-.703l.208-1.072c.055-.164.147-.246.276-.246h8.244c.152 0 .176.48.072 1.441.398 0 .583.076.553.229l-.488 2.513-1.089.721h-1.072c-.169.023-.266.1-.29.228l-.048.246h1.318c.148.024.209.1.184.229l-2.411 12.427-.15.229c.528.117.779.241.754.369l-1.388 7.155c-.009.164.058.246.198.246.152 0 .237-.041.253-.123l1.171.123h8.965l.205.123-.222.598-.696 3.585zm-55.046-13.429h1.265c.148.023.21.1.185.228l-.253.123h-1.266l.069-.351zm.331 4.271h-.352c-.152 0-.225-.228-.218-.685l.252-.123h.704l-.008.58-.378.228zm31.409 3.006h-2.197l-.543.351h-1.143c-.157.024-.248.1-.273.229.844 0 1.258.041 1.242.123-2.366 2.953-5.563 5.145-9.59 6.574-1.919.469-3.623.704-5.111.704h-1.266c-.902 0-1.502-.082-1.798-.246-.168.082-.293.123-.375.123-3.276-.575-5.713-1.694-7.312-3.358-1.245-1.254-2.195-2.519-2.849-3.797-.113-.082-.257-.123-.433-.123h-1.037l.044-.229h1.143c.046-.233.15-.351.314-.351h1.495l.6-.105c-.754-2.274-1.007-4.354-.758-6.241l.069-.351.167-.229c.07 0 .097.041.081.123 1.176-.082 2.034-.123 2.573-.123h1.723l.024-.123c.029-.152-.032-.228-.185-.228h-4.148c-.094 0-.235-.27-.423-.809h-1.969c-.152 0-.214-.076-.184-.228.03-.153.363-.27 1-.352l.088-.457c-.082 0-.192-.035-.331-.105-.166.07-.29.105-.372.105-.04-.152-.053-.269-.037-.352.741-2.671 2.259-5.361 4.554-8.068.859-.925 1.571-1.388 2.133-1.388.996 0 1.517-.117 1.562-.352-.228-.153-.442-.229-.641-.229h-.123l-.6.106-.062-.229.15-.228c-.305 0-.442-.076-.412-.229.671-.503 1.892-1.236 3.66-2.197h1.266C118.525 1.03 121.65.414 125.6.414c2.73 0 4.926.58 6.588 1.74-.154.071-.314.106-.478.106l-.044.228c.281 0 1.211.733 2.79 2.198.457 0 .891.152 1.3.457h1.283l.539.123-.024.123c-.029.152-.121.229-.272.229h-.581c-.07 0-.097-.042-.081-.124-.145.082-.347.124-.604.124l-.021.105c1.369 1.945 2.167 4.564 2.396 7.857l-.379.229h-2.777l-.024.123c1.136 0 1.786.035 1.948.106.143-.071.343-.106.601-.106h.228c.305 0 .315.733.031 2.197-.006.152.055.229.184.229h1.16c.07 0 .099.035.085.105l.267-.105h.105c.46.047.672.158.638.333-.498 2.567-1.732 5.151-3.701 7.753l-.249.105zm-5.459-8.191l-.249.105h-.809c-.316 0-.326-.767-.028-2.303l-.538-.122h-3.938l.045-.229c1.173-.071 2.03-.106 2.569-.106h1.723l.024-.123c-.329-2.05-1.178-3.626-2.546-4.728-1.537-1.079-2.856-1.618-3.958-1.618-3.222 0-6.162 1.653-8.819 4.957-.803 1.36-1.244 2.245-1.324 2.655l-.044.228.611.475-.044.229c-.03.152-.127.228-.291.228h-.562l-.068.352h2.074c.129 0 .193.269.195.808 1.638.071 2.862.106 3.67.106h.914l-.044.228c-.032.164-.124.246-.276.246-.125-.082-.229-.123-.31-.123-.082 0-.131.041-.147.123l-.556-.123c-.282 0-1.368.041-3.259.123l-.109.563c.009 1.887.64 3.586 1.894 5.097.741.587 1.102.932 1.082 1.038l-.249.105h-1.617l.061.229-.024.122h-.686l-.044.229h1.389c1.295.387 2.178.58 2.647.58.445 0 1.2-.117 2.265-.351.03-.152-.032-.229-.184-.229h-.58l.044-.229h1.266c.082 0 .644-.117 1.685-.351h1.161c.175 0 .334-.035.477-.105.139.07.249.105.331.105 1.637-.644 3.261-2.068 4.872-4.271.757-1.547 1.157-2.432 1.201-2.655l.18-.932c.025-.128-.334-.239-1.077-.333zm2.033 1.388l-.15.229-.02.105h.105c.03-.152.121-.228.273-.228l.02-.106h-.228zm-14.299 2.303c-.029.153-.12.229-.272.229h-.123c-.153 0-.214-.076-.185-.229l.068-.352c.053-.152.144-.228.274-.228h.123c.147.024.209.1.183.228l-.068.352zM83.779 11.77c.145.035.205.117.18.246-.029.152-.121.228-.273.228h-.246c-.152 0-.214-.076-.184-.228.055-.164.147-.246.276-.246h.247zm21.031-5.203l-.168.228-.577-.106h-2.478l-.741.106c-.116-.07-.303-.106-.56-.106l-.847.106c-.127-.07-.278-.106-.454-.106l-.266.106c-.082 0-.117-.035-.103-.106l-.601.106H96.82l-.805 4.149c-.032.164-.372.287-1.021.369-.059.304-.165.457-.317.457h-1.072c-.16.035-.252.117-.277.246-.006.152.055.228.184.228h1.196l.204.124-.239.597-.208 1.073.629.474c-.03.153-.527.269-1.492.351l-1.354 6.979c-.044.223-.473.381-1.288.475l-.024.123h1.793c.428.211.632.369.612.474l-1.819 9.37c-.03.152-.121.228-.273.228h-4.746c-.797 0-1.973-.041-3.527-.123.2-1.453.366-2.52.498-3.199l1.242-6.399c-.686-.152-1.012-.31-.98-.474l-.253.123h-1.072l.024-.123c.053-.153.15-.229.29-.229l.556.123c.169-.082.3-.123.393-.123l1.382-7.119c.053-.152.144-.229.273-.229h1.072l.092-.474c-.398 0-.583-.076-.553-.228l.3-1.548c.032-.164-.034-.246-.198-.246h-1.055c-.164 0-.231-.076-.202-.228.056-.164.154-.246.294-.246h1.055l.587-.58h.598l.331-1.073c.029-.152.003-.228-.079-.228l.239-.598.369-1.898c.065-.34-.047-.574-.339-.704-.082 0-.13.036-.143.106l-.577-.106h-6.856c-.164 0-.23-.081-.198-.246l.873-4.5c-.316 0-.46-.075-.43-.228l.024-.123c.034-.176.106-.334.215-.474-.055-.141-.065-.299-.031-.475.082 0 .131-.041.147-.123 1.715-.082 2.989-.123 3.821-.123h19.775c.176 0 .326.041.451.123.157-.082.323-.123.498-.123.126.199.177.358.154.475l-.171.246c.003.41.1.726.291.949l-.873 4.5zM85.036 21.139l-.044.228h.123l.044-.228h-.123zm-43.63-3.867h1.265c.148.023.21.1.184.228l-.252.123h-1.266l.069-.351zm.331 4.271h-.352c-.152 0-.225-.228-.218-.685l.252-.123h.703l-.007.58-.378.228zm31.409 3.006h-2.197l-.543.351h-1.143c-.157.024-.248.1-.273.229.844 0 1.258.041 1.242.123-2.366 2.953-5.563 5.145-9.59 6.574-1.92.469-3.623.704-5.111.704h-1.266c-.902 0-1.502-.082-1.798-.246-.168.082-.294.123-.375.123-3.276-.575-5.713-1.694-7.312-3.358-1.245-1.254-2.194-2.519-2.849-3.797-.113-.082-.257-.123-.433-.123h-1.037l.044-.229h1.143c.045-.233.15-.351.314-.351h1.494l.601-.105c-.755-2.274-1.007-4.354-.758-6.241l.069-.351.167-.229c.07 0 .097.041.081.123 1.176-.082 2.034-.123 2.573-.123h1.723l.024-.123c.029-.152-.033-.228-.185-.228h-4.148c-.094 0-.235-.27-.423-.809h-1.969c-.152 0-.214-.076-.184-.228.029-.153.363-.27 1-.352l.088-.457c-.082 0-.192-.035-.331-.105-.166.07-.29.105-.372.105-.04-.152-.053-.269-.037-.352.741-2.671 2.259-5.361 4.554-8.068.859-.925 1.57-1.388 2.133-1.388.996 0 1.517-.117 1.562-.352-.228-.153-.442-.229-.641-.229h-.123l-.601.106-.061-.229.15-.228c-.305 0-.442-.076-.412-.229.671-.503 1.892-1.236 3.66-2.197h1.266C55.163 1.03 58.288.414 62.237.414c2.731 0 4.927.58 6.589 1.74-.155.071-.314.106-.478.106l-.044.228c.281 0 1.211.733 2.79 2.198.457 0 .89.152 1.3.457h1.283l.539.123-.024.123c-.03.152-.12.229-.273.229h-.58c-.07 0-.097-.042-.081-.124-.145.082-.347.124-.604.124l-.021.105c1.369 1.945 2.167 4.564 2.395 7.857l-.378.229h-2.778l-.023.123c1.136 0 1.786.035 1.948.106.142-.071.343-.106.601-.106h.228c.305 0 .315.733.031 2.197-.007.152.055.229.184.229h1.16c.07 0 .099.035.085.105l.267-.105h.105c.46.047.672.158.638.333-.498 2.567-1.732 5.151-3.701 7.753l-.249.105zm-5.459-8.191l-.249.105h-.809c-.316 0-.326-.767-.028-2.303l-.538-.122h-3.938l.044-.229c1.174-.071 2.031-.106 2.57-.106h1.723l.023-.123c-.328-2.05-1.177-3.626-2.545-4.728-1.537-1.079-2.856-1.618-3.958-1.618-3.223 0-6.162 1.653-8.819 4.957-.803 1.36-1.244 2.245-1.324 2.655l-.044.228.611.475-.044.229c-.03.152-.127.228-.291.228h-.562l-.069.352h2.075c.128 0 .193.269.194.808 1.639.071 2.863.106 3.671.106h.914l-.044.228c-.032.164-.124.246-.276.246-.125-.082-.228-.123-.31-.123-.083 0-.131.041-.147.123l-.557-.123c-.281 0-1.367.041-3.258.123l-.109.563c.009 1.887.64 3.586 1.894 5.097.741.587 1.102.932 1.082 1.038l-.249.105h-1.617l.061.229-.024.122h-.686l-.044.229h1.389c1.295.387 2.178.58 2.647.58.445 0 1.2-.117 2.265-.351.03-.152-.032-.229-.184-.229h-.58l.044-.229h1.266c.082 0 .644-.117 1.685-.351h1.16c.176 0 .335-.035.478-.105.139.07.249.105.331.105 1.637-.644 3.261-2.068 4.872-4.271.757-1.547 1.157-2.432 1.201-2.655l.18-.932c.025-.128-.334-.239-1.077-.333zm2.033 1.388l-.15.229-.02.105h.105c.03-.152.121-.228.273-.228l.02-.106h-.228zm-14.299 2.303c-.029.153-.12.229-.272.229h-.123c-.153 0-.214-.076-.185-.229l.068-.352c.053-.152.145-.228.273-.228h.123c.148.024.209.1.185.228l-.069.352zM38.151 7.252h.703c.157.036.223.118.198.246l-.27.123h-.703l-1.777 9.159h.597c.148.023.209.099.184.228l-.023.123c-.023.117-.163.235-.42.352h-.124l-.225-.106-.15.229-.44 2.267h1.301c.159.024.227.1.202.229l-1.477 7.611c-.032.164-.13.246-.294.246h-1.301l-.877 4.518c-.029.152-.126.228-.29.228h-3.92c-.797 0-1.98-.035-3.548-.105l.764-3.938-.01-.58.27-.123h.826l.621-.123 1.245-6.416c.41-.48.662-.96.755-1.441-.856-.059-1.267-.176-1.233-.352.76-1.499 1.257-2.25 1.492-2.25.316 0 .49-.082.522-.246l.044-.229c-.551 0-.802-.122-.754-.368l.416-2.145h-.123c-.106 0-.569.756-1.389 2.267.459.106.677.223.652.352-.041.211-.353.369-.936.475.014-.071-.014-.106-.085-.106-.428.575-.906 1.407-1.434 2.496h1.178c.16.024.227.1.202.229-1.77 2.965-2.912 4.951-3.424 5.959-.761 1.266-1.201 1.898-1.317 1.898h-1.424l-2.714 4.746h-2.127c-.797 0-1.98-.035-3.548-.105-.531-2.578-.747-4.125-.647-4.641h1.073c.152 0 .244-.082.276-.246-.748-3.632-1.104-5.695-1.067-6.187l.3-1.547c-.047 0-.549-.036-1.508-.106l-.168.229-1.477 7.611c-.032.164-.13.246-.294.246H9.382c-.157.024-.248.1-.273.228l-.071.37h.597c.148.023.209.1.184.229-.032.164-.124.246-.276.246h-.598l-.668 3.445c-.03.152-.127.228-.291.228H3.82c-.667 0-1.727-.035-3.179-.105l-.075-.246.601-3.094.812-.474-.628-.475.024-.124c.053-.152.149-.228.29-.228h1.301l.239-.597 1.34-6.909-.01-.58H3.234c-.164 0-.23-.082-.198-.246L5.045 9.274c.053-.153.15-.229.291-.229h.58l.184-.949h-.58c-.164 0-.231-.082-.199-.246l.021-.106h.826c.164 0 .262-.082.294-.246l.048-.246c-.176 0-.327-.035-.454-.105-.155.07-.32.105-.495.105l-.079-.228.508-2.619c.034-.176.106-.334.215-.475-.055-.14-.065-.299-.031-.475L6.706.713c.053-.152.15-.229.291-.229H7.7c.457 0 .74-.04.85-.122.417.082.767.122 1.049.122h3.814c.176 0 .342-.04.498-.122 1.031 0 1.478.357 1.339 1.072l1.121 5.818h1.073l-.072.369h-.703c-.169.024-.266.1-.291.229-.027.14.306.263 1.001.369l.079.228-.116.598h-.475c.253 1.957.97 5.602 2.15 10.934l.618-.106h.72l.041-.843.092-.475c.264-.516.423-.908.475-1.178-.164 0-.23-.082-.198-.246l.023-.123c.053-.152.15-.228.291-.228h.105l.222.122 5.599-9.281.573.123c.047 0 .213-.041.499-.123l.072-.369h-.581c-.164 0-.231-.076-.202-.228L31.108.608l.27-.124h7.84c.159.024.226.1.201.229l-1.268 6.539zM11.9 13.809l-1.177 6.064h1.547l.347-1.793c-.112-1.898-.351-3.322-.717-4.271zm8.807 6.064c-.014.07-.062.106-.143.106.234 1.57.463 2.443.686 2.619l.99-2.021c-.114-.258-.157-.458-.13-.598l-1.403-.106zm1.444-3.093c-.169.023-.266.099-.29.228l-.072.369h.123c.152 0 .245-.082.277-.246l.068-.351h-.106zm3.078-9.159c-.164 0-.23-.081-.198-.246l.27-.123h1.195l-.071.369h-1.196zm-3.217 0c-.152 0-.212-.081-.18-.246l.252-.123h.721c.082 0 .115.042.099.123l.252-.123h.123l-.071.369h-1.196z"/>
</svg>
