<svg xmlns="http://www.w3.org/2000/svg" width="69" height="67">
    <path fill="#7C7E84" fill-rule="evenodd" d="M67.459 50.34l.439-.829-.535-.284c.377-.793.656-1.64.821-2.526l.597.083.13-.929-.598-.083c.041-.437.057-.88.041-1.33-.016-.45-.064-.891-.135-1.324l.59-.127-.195-.917-.59.127c-.227-.871-.565-1.696-.998-2.459l.513-.323-.497-.794-.514.323c-.507-.731-1.104-1.393-1.777-1.969l.374-.48-.739-.576-.374.479c-.718-.511-1.504-.932-2.341-1.246l.186-.574-.891-.289-.185.572c-.84-.23-1.722-.355-2.629-.363l-.022-.603-.936.035.021.602c-.904.075-1.775.264-2.596.555l-.226-.557-.868.353.226.559c-.445.205-.873.442-1.28.706l-4.583-5.371c4.941-3.025 7.323-1.879 7.957-1.556 3.185 1.622 5.642-.056 4.948-.529-6.095-4.152-14.61-.322-14.61-.322-.21-.228-.46-.333-.674-.381l-.119-.141c.462-6.008-8.368-7.663-8.457-7.679l-.481-.085.035.191c-.568-.322-1.222-.625-1.675-.617-.562.01-.885.147-1.05.25l-.15-.034c-.369-.495-1.649-1.387-1.649-1.387 1.261-.787 2.331-4.849 2.331-4.849.92-.501.678-1.86.887-2.57.21-.711 1.512-.327 1.512-.327s1.021 1.33 1.85 1.574c.828.244 2.083-1.832 2.683-2.556.599-.725-1.433-.809-1.433-.809.779-.027 1.715-2.327 1.715-2.327l1.503.572c1.503.571 1.589-1.463 1.589-1.463-4.318-4.105-7.819-4.879-10.514-4.9-2.694-.021-2.755 4.981-2.755 4.981-5.652-.892-7.182 3.42-9.266 5.253-2.083 1.832-3.707 9.078-4.204 11.635-.408 2.1 5.134 9.598 7.129 12.212-2.265.416-9.566.985-11.045 1.039-1.653.061-1.111.493-1.111.493C7.866 36.405.876 40.878.876 40.878c-.724.44 1.229.708 2.784-.003 1.555-.712 4.836-1.556 4.836-1.556l3.236 4.249 1.664.241c.975 1.02 2.291 1.343 3.834 1.791l-.102.315c-.84-.231-1.722-.357-2.629-.364l-.021-.603-.937.035.021.602c-.904.074-1.774.264-2.596.555l-.225-.557-.869.353.226.559c-.812.374-1.565.852-2.246 1.415l-.407-.451-.696.628.407.451c-.63.624-1.179 1.328-1.632 2.095l-.536-.285-.44.829.535.283c-.377.794-.656 1.641-.82 2.527l-.598-.083-.13.929.599.083c-.041.437-.057.88-.042 1.33.016.45.064.891.136 1.324l-.591.126.196.917.59-.126c.227.871.565 1.695.997 2.46l-.513.322.497.794.515-.323c.506.731 1.103 1.393 1.776 1.969l-.374.48.739.576.374-.48c.719.511 1.504.933 2.341 1.248l-.186.573.891.289.186-.572c.84.23 1.721.355 2.629.363l.021.603.937-.035-.022-.603c.905-.073 1.775-.263 2.596-.554l.226.557.868-.353-.226-.559c.813-.375 1.566-.853 2.247-1.415l.407.452.696-.629-.407-.452c.63-.624 1.178-1.328 1.632-2.094l.536.285.439-.829-.535-.284c.378-.793.656-1.64.821-2.526l.597.083.13-.929-.598-.083c.041-.437.057-.88.041-1.33-.016-.45-.064-.891-.135-1.324l.59-.126-.192-.901 3.3-1.743c.245.518 1.509.095 2.349.441.84.346 1.72-.289 5.516-1.482 3.795-1.193 3.795-3.302 3.795-3.302s.486 3.069 2.652.505c2.166-2.564-2.122-6.775-2.122-6.775l2.018-.375c-.593-3.97 2.599-7.325 2.599-7.325l3.349 3.191c.268 1.195.94 1.02.94 1.02l.796.903c-.364.433-.69.897-.979 1.386l-.537-.284-.439.828.535.284c-.377.793-.656 1.64-.821 2.526l-.597-.083-.13.929.598.083c-.04.436-.057.88-.041 1.33.016.45.064.891.136 1.324l-.591.126.195.917.59-.126c.228.871.565 1.696.998 2.46l-.513.321.497.795.515-.323c.506.731 1.103 1.393 1.776 1.97l-.374.479.739.577.374-.481c.718.512 1.504.933 2.341 1.248l-.186.573.891.289.185-.573c.84.231 1.722.356 2.63.364l.021.603.936-.035-.021-.602c.904-.074 1.775-.264 2.596-.555l.226.557.868-.353-.226-.558c.812-.376 1.566-.853 2.247-1.416l.406.451.696-.628-.406-.451c.63-.624 1.178-1.329 1.631-2.095l.537.285zM38.121 25.959l.043 1.202c-.291-.44-1.312-.376-2.155-.406.185-.392.464-.785.862-1.157.181.047.345.06.494.041l.756.32zM22.092 56.576l-.876-.234.9-.853.006.096c.012.335 0 .665-.03.991zm2.263-11.437c.697.577.381 2.245.381 2.245l-1.235.804c-.216-.803-.34-1.997.109-3.443.243.08.497.189.745.394zm11.813-19.794c-.397.427-.675.88-.86 1.337-.033-.007-.065-.015-.096-.024-.947-.279-2.272-3.63-2.272-3.63.843.248 1.572 1.585 3.228 2.317zm2.021 2.71l.004-.051.003.06-.007-.009zm-3.62.947c-.009.008-.016.018-.026.025-.116.075-.938.626-2.044 1.362l-3.536-6.087c1.674 2.506 3.874 3.908 5.606 4.7zM18.592 46.028c1.922.675 3.245-1.741 3.777-1.853-.696 2.067-.402 3.754-.049 4.782l-.169.11c-.326-.371-.678-.719-1.052-1.04l.373-.479-.738-.576-.374.48c-.719-.512-1.505-.933-2.341-1.248l.107-.332c.154.05.309.101.466.156zm1.366 4.467l-1.807 1.176.945-1.947c.306.235.594.493.862.771zm-1.047-.906l-.94 1.936-.483-.561-1.967.939c-.182-.03-.369-.043-.558-.047l.957-3.573c1.096.22 2.112.672 2.991 1.306zm-4.789-1.452c.538-.02 1.065.017 1.576.103l-.967 3.612h-.008l-.042.004-1.265-3.659c.232-.03.467-.051.706-.06zm-.933.093l1.26 3.646c-.888.094-1.686.476-2.302 1.05l-.04.026-2.019-3.499c.913-.616 1.964-1.043 3.101-1.223zm-3.287 1.353l2.017 3.495-.069.051-3.704-1.798c.488-.671 1.081-1.262 1.756-1.748zm-3.139 5.076c.182-1.147.618-2.215 1.251-3.141l3.64 1.767c-.774.656-1.167 1.489-1.285 2.338l-3.606-.964zm-.092 1.493c-.015-.431.007-.854.06-1.268l3.614.966c-.01.126-.014.252-.013.377l-3.504 1.216c-.086-.418-.141-.849-.157-1.291zm.205 1.514l3.464-1.203c.056.926.399 1.803.883 2.411.034.039.068.074.102.111l-2.966 1.716c-.7-.874-1.215-1.905-1.483-3.035zm1.631 3.211l2.976-1.723c.119.121.239.231.36.334l-1.454 2.996c-.71-.432-1.345-.976-1.882-1.607zm2.076 1.722l1.44-2.966c.853.66 1.738.897 2.559.906l-.814 3.039c-1.148-.091-2.229-.435-3.185-.979zm4.089 1.001c-.227.008-.452.005-.675-.006l.819-3.058c.155-.007.308-.019.457-.04l.995 2.877c-.513.128-1.047.207-1.596.227zm1.814-.286l-.986-2.853c1.339-.244 2.35-.962 2.494-1.068l1.377 2.386c-.83.7-1.808 1.231-2.885 1.535zm3.059-1.685l-1.381-2.393.366-.347 2.369 1.15c-.379.588-.834 1.124-1.354 1.59zm1.473-1.783l-2.313-1.123 2.319-2.199 1.045.279c-.134 1.1-.501 2.131-1.051 3.043zm17.766-37.798l-.002-.081c.043-.272-.377-.562-.993-.838l-.092-.081c2.107.566 7.229 2.383 7.022 6.612-1.016-.966-4.205-3.995-5.935-5.612zM51.565 36.81l-1.451-1.576-.445.167-3.143-3.726c.268-.189.528-.362.783-.529l4.603 5.395c-.118.087-.234.176-.347.269zm14.21 7.726c.012.335 0 .666-.03.991l-3.231-.863v-.008l-.004-.042 3.159-1.097c.057.333.094.673.106 1.019zm-.146-1.243l-3.139 1.089c-.094-.906-.489-1.717-1.081-2.338l2.944-1.703c.616.866 1.059 1.866 1.276 2.952zm-5.264.796c-.034-.088-.074-.174-.12-.255l.442-.911c.343.396.579.887.664 1.43l-.986-.264zm1.012.505c.003.034.008.068.009.103.001.023-.001.046-.001.069l-.908.315c.016-.115.025-.232.02-.351-.004-.132-.022-.261-.052-.385l.932.249zm-1.893 1.936l.909.442c-.395.343-.886.58-1.429.666l.264-.988c.089-.034.174-.074.256-.12zm.221-.144c.197-.149.367-.333.497-.544l.483.836c-.038.043-.077.086-.117.127l-.863-.419zm.621-.782c.038-.086.072-.174.098-.265l.956-.333c-.039.55-.236 1.058-.544 1.482l-.51-.884zm3.892-5.446l-2.972 1.72-.036-.032 1.539-3.17c.553.424 1.047.924 1.469 1.482zm-5.245 6.573l-.25.933c-.034.002-.068.008-.103.009-.023.001-.046-.001-.069-.001l-.314-.909c.115.017.232.025.351.021.132-.005.261-.024.385-.053zm-1.258-.118c.085.038.173.072.265.097l.331.957c-.549-.039-1.057-.235-1.48-.543l.884-.511zm1.606-3.621c-.086-.038-.174-.072-.265-.098l-.331-.956c.549.038 1.057.235 1.479.543l-.883.511zm.78.621c-.148-.198-.332-.367-.543-.497l.836-.484c.043.038.086.076.127.116l-.42.865zm2.463-5.072l-1.532 3.155c-.666-.541-1.505-.868-2.416-.889l.956-3.573c1.097.219 2.112.672 2.992 1.307zm-4.757 4.414c-.088.034-.174.074-.255.12l-.392-.19-.354-.384c.365-.273.796-.459 1.266-.534l-.265.988zm-.032-5.867c.538-.02 1.065.017 1.575.103l-.967 3.613-.007-.001-.042.004-1.265-3.659c.232-.03.467-.051.706-.06zm-.933.093l1.26 3.646c-.776.082-1.483.384-2.06.843l-.417-.452-1.695-2.937c.868-.55 1.853-.932 2.912-1.1zm-1.078 7.38l-.109.037c.004-.048.011-.094.017-.142l.092.105zm-2.391-5.891l.158.274-.213-.232.055-.042zm-1.486 1.492l.251.285-.339-.164.088-.121zm-1.471 3.448c.182-1.147.618-2.215 1.25-3.141l.859.417 2.241 2.543c-.148.401-.23.832-.24 1.279l-4.11-1.098zm-.092 1.493c-.015-.431.007-.854.06-1.267l3.872 1.034c-.022.062-.023.138-.012.218l-3.763 1.307c-.087-.42-.141-.851-.157-1.292zm.205 1.514l3.77-1.309c.07.205.175.384.175.384l-.886.485 1.191 1.874-2.767 1.601c-.7-.874-1.215-1.905-1.483-3.035zm1.63 3.211l2.741-1.586.043.069.626-.023-1.527 3.147c-.71-.432-1.346-.976-1.883-1.607zm5.904-6.954l.249-.933c.035-.003.069-.008.104-.009.023-.001.045.001.068.001l.314.908c-.114-.016-.231-.024-.351-.02-.132.005-.26.023-.384.053zm-1.129 3.118c.149.197.333.367.543.497l-.835.484c-.029-.025-.058-.048-.086-.074.01-.066.021-.131.033-.196l.345-.711zm-2.698 5.558l1.588-3.271.622-.023.001-.032c.58.352 1.255.557 1.973.574l-.999 3.731c-1.148-.091-2.229-.435-3.185-.979zm4.088 1.001c-.226.008-.451.005-.674-.007l1.002-3.743h.008c.014 0 .028-.003.042-.004l1.219 3.527c-.514.129-1.047.207-1.597.227zm1.815-.286l-1.206-3.487c.906-.096 1.717-.492 2.338-1.085l1.752 3.037c-.829.701-1.807 1.231-2.884 1.535zm3.059-1.685l-1.761-3.05.032-.036 3.083 1.495c-.379.589-.834 1.125-1.354 1.591zm1.473-1.783l-3.052-1.481c.541-.667.869-1.508.891-2.42l3.212.858c-.134 1.1-.501 2.131-1.051 3.043z"/>
</svg>
