<svg xmlns="http://www.w3.org/2000/svg" width="199" height="14">
    <path fill="#7C7E84" fill-rule="evenodd" d="M1.582 9.089h7.069c-.423.618-.448 1.018-.075 1.197.201.084.454.143.764.176.311.028.864.05 1.678.063.402.006 1.74.012 4.007.018 3.113-.006 4.922-.015 5.422-.028.948-.037 1.6-.101 1.949-.192.502-.135.906-.437 1.216-.905.211-.316.233-.539.061-.669-.235-.179-1.011-.274-2.32-.286-.917 0-2.797-.037-5.649-.11-2.945-.075-4.857-.119-5.743-.128-2.288-.037-3.829-.18-4.613-.425-1.008-.314-1.45-.848-1.322-1.602.069-.419.322-.964.771-1.64.944-1.423 2.124-2.425 3.542-3.01 1.067-.443 2.426-.732 4.09-.873C13.923.553 17.338.49 22.658.49c3.469 0 5.877.053 7.234.156 1.787.142 2.985.388 3.587.736.796.487.784 1.355-.047 2.607-.09.136-.237.349-.445.645h-7.075c.176-.303.271-.509.291-.628.065-.344-.345-.538-1.228-.579-.784-.038-2.736-.056-5.858-.056-3.091 0-4.949.047-5.585.137-.713.111-1.227.397-1.531.855-.294.443-.131.713.48.811.521.081 3.048.157 7.586.232 4.112.061 6.708.138 7.798.23 1.096.09 1.927.228 2.486.415.563.182.935.442 1.123.781.288.498.068 1.298-.666 2.404-.817 1.232-1.724 2.139-2.711 2.714-.99.572-2.243.962-3.759 1.169-1.499.211-5.306.314-11.422.314-3.721 0-6.369-.053-7.953-.157-1.932-.122-3.218-.362-3.857-.716-.7-.38-.901-.917-.62-1.612.135-.338.352-.737.656-1.197l.44-.662zM39.009.684h7.668l-2.98 4.494h16.486l2.98-4.494h7.668l-8.334 12.565h-7.668l3.022-4.557H41.365l-3.022 4.557h-7.668L39.009.684zm35.171 0h26.539l-1.96 2.954H79.416l-1.204 1.815h18.361l-1.832 2.762H76.379l-1.335 2.014h19.481l-2.003 3.02H65.846L74.18.684zm20.625 12.565L103.139.684h17.642c4.16.006 6.601.029 7.327.063.828.044 1.512.176 2.07.392.552.218.905.497 1.072.834.155.361.145.737-.032 1.13-.205.463-.519 1.018-.951 1.67-.679 1.023-1.284 1.736-1.823 2.142-.811.6-1.861 1.017-3.147 1.25-.444.081-1.065.15-1.88.213 1.495.06 2.436.292 2.842.692.172.176.246.379.22.609-.035.233-.174.568-.418 1.008-.14.23-.441.692-.906 1.392l-.774 1.17h-7.195l.446-.673c.496-.748.787-1.285.877-1.611.123-.465-.173-.743-.875-.83-.468-.054-1.503-.081-3.121-.081h-10.286l-2.119 3.195h-7.303zm11.504-6.334h10.268c1.542-.013 2.455-.026 2.745-.038 1.049-.029 1.806-.195 2.276-.497.323-.207.652-.559.984-1.059.283-.427.412-.748.388-.954-.042-.308-.521-.482-1.431-.515-.316-.013-1.293-.023-2.929-.028h-10.25l-2.051 3.091zm46.978 1.482h7.303c-.365.613-.621 1.034-.77 1.26-.609.917-1.37 1.65-2.288 2.201-.953.58-2.316.982-4.083 1.208-1.928.251-5.067.377-9.41.377-4.787 0-7.982-.041-9.59-.119-1.5-.069-2.644-.176-3.434-.324-.794-.148-1.389-.361-1.783-.644-.532-.38-.696-.883-.491-1.509.202-.656.922-1.922 2.164-3.795 1.192-1.797 2.086-3.009 2.675-3.634.88-.94 2.028-1.622 3.447-2.046 1.074-.316 2.61-.547 4.592-.682 2.054-.134 5.627-.2 10.719-.2 3.025 0 5.165.035 6.409.101 1.874.099 3.159.295 3.856.59.856.361 1.203.886 1.04 1.574-.114.49-.384 1.058-.812 1.702-.074.114-.241.355-.501.73h-7.297c.181-.308.294-.517.346-.629.151-.374-.016-.61-.495-.711-.734-.147-2.957-.218-6.665-.218-2.528 0-4.296.038-5.303.109-1.226.088-2.172.421-2.841 1.005-.535.472-1.153 1.232-1.851 2.285-.714 1.077-1.097 1.825-1.148 2.236-.073.535.49.843 1.695.93.987.067 2.773.102 5.361.102 2.792 0 4.724-.033 5.781-.092.997-.057 1.723-.239 2.182-.543.387-.258.78-.68 1.192-1.264zM184.675.498c5.033 0 8.475.067 10.326.202 2.667.198 3.918.895 3.758 2.093-.112.82-.821 2.214-2.124 4.177-1.299 1.958-2.438 3.35-3.413 4.17-1.429 1.197-3.605 1.894-6.534 2.093-2.018.135-5.62.2-10.803.2-5.17 0-8.684-.065-10.535-.2-2.667-.199-3.918-.896-3.759-2.093.113-.82.821-2.212 2.119-4.17 1.307-1.969 2.448-3.364 3.419-4.177 1.429-1.198 3.605-1.895 6.534-2.093 2.042-.135 5.71-.202 11.012-.202zm-2.658 3.268c-3.661 0-5.919.053-6.772.158-1.032.128-1.838.42-2.407.873-.556.449-1.23 1.276-2.028 2.478-.516.779-.812 1.342-.889 1.685-.13.637.507 1.005 1.92 1.097 1.043.071 3.114.108 6.212.108 3.097 0 5.219-.037 6.357-.108 1.534-.092 2.653-.46 3.357-1.097.393-.349.838-.892 1.328-1.63.597-.903.975-1.544 1.137-1.924.254-.633.159-1.053-.288-1.263-.399-.195-1.422-.314-3.076-.358-.602-.013-2.215-.019-4.851-.019z"/>
</svg>
