<svg xmlns="http://www.w3.org/2000/svg" width="22" height="22">
    <path fill="#FFF" fill-rule="evenodd" d="M18.389 1.237c-.834-.575-1.751-.366-2.124.159-.227.318-2.578 3.801-2.843 4.228-.116.186-.172.412-.172.661 0 .317.094.67.278 1.015.179.334.765 1.35 1.054 1.847-.313.438-1.111 1.467-2.758 3.088-1.634 1.61-2.686 2.404-3.133 2.713-.504-.282-1.535-.861-1.874-1.036-.639-.333-1.278-.371-1.709-.1-.406.253-3.916 2.561-4.25 2.799-.315.224-.485.626-.485 1.063 0 .344.105.708.329 1.025.022.031 2.233 3.092 3.515 3.051 3.598-.113 7.828-3.558 10.742-6.429 2.914-2.87 6.412-7.036 6.527-10.597v-.029c0-1.246-3.067-3.437-3.097-3.458zm-4.364 13.164c-3.847 3.79-7.318 5.933-9.786 6.048-.467-.165-1.663-1.359-2.494-2.492-.059-.083-.093-.188-.093-.283 0-.022.002-.04.004-.055.54-.365 3.558-2.329 4.122-2.686.059-.001.21.019.426.131.229.118.898.489 1.833 1.014l.728.409.686-.474c.51-.354 1.619-1.195 3.307-2.859 1.695-1.67 2.547-2.758 2.904-3.26l.482-.676-.416-.715c-.403-.696-.886-1.536-1.032-1.809-.117-.219-.126-.37-.126-.409l.001-.017c.317-.498 2.364-3.536 2.737-4.072.053-.009.168-.001.311.098 1.161.825 2.372 1.997 2.545 2.455-.116 2.439-2.293 5.864-6.139 9.652z"/>
</svg>
