<svg xmlns="http://www.w3.org/2000/svg" width="21" height="22">
    <path fill="#FFF" fill-rule="evenodd" d="M18.193 8.937c-.416 0-.991.189-.991.69 0 1.219 3.076.435 3.076 2.776 0 1.49-1.199 2.2-2.576 2.2-.859 0-1.616-.256-2.248-.843l1.049-1.148c.301.393.793.63 1.283.63.482 0 1.02-.225 1.02-.698 0-1.227-3.133-.567-3.133-2.794 0-1.425 1.237-2.17 2.548-2.17.755 0 1.482.198 2.048.696L19.26 9.381c-.238-.301-.709-.444-1.067-.444zm-6.602-5.65V.833c3.139.217 5.885 1.857 7.6 4.28h-3.283c-1.184-1.014-2.676-1.677-4.317-1.826zm.773 8.75l1.123-4.398h1.491l-1.953 6.684h-1.312L10.24 9.698h-.018l-1.473 4.625H7.484L5.501 7.639h1.605l1.068 4.286h.017l1.398-4.286h1.369l1.387 4.398h.019zM3.17 10.279H.719C1.07 5.223 5.108 1.185 10.164.833v2.454c-3.706.337-6.654 3.287-6.994 6.992zm6.994 8.419v2.454c-5.056-.35-9.094-4.389-9.445-9.444H3.17c.34 3.703 3.288 6.651 6.994 6.99zm9.027-1.825c-1.715 2.424-4.461 4.061-7.599 4.279v-2.454c1.64-.149 3.133-.812 4.316-1.825h3.283z" opacity=".502"/>
</svg>
